<svg width="21" height="16" viewBox="0 0 21 16" fill="none" xmlns="http://www.w3.org/2000/svg">
<path d="M7.62692 14.8519L7.6269 14.8518L1.08952 8.31447C0.892047 8.11699 0.892018 7.79676 1.08953 7.59922C1.08953 7.59921 1.08954 7.59921 1.08954 7.59921L2.51184 6.17687L2.51185 6.17685C2.70934 5.97935 3.02958 5.97935 3.22706 6.17685L3.22708 6.17687L7.63097 10.5807L7.98453 10.9343L8.33808 10.5807L17.7707 1.14812L17.4187 0.7961L17.7707 1.14812C17.9682 0.950627 18.2885 0.950627 18.486 1.14812L19.9083 2.57047L20.257 2.22176L19.9083 2.57047C20.1058 2.76795 20.1058 3.08819 19.9083 3.28573L8.34217 14.8519C8.34216 14.8519 8.34215 14.8519 8.34215 14.8519C8.14461 15.0494 7.8244 15.0494 7.62692 14.8519Z" fill="#2656D6" stroke="#F9F9F9"/>
</svg>
