<svg width="684" height="203" viewBox="0 0 684 203" fill="none" xmlns="http://www.w3.org/2000/svg">
<circle cx="64.5" cy="64.5" r="52" stroke="url(#paint0_radial_4693_4315)" stroke-width="25"/>
<circle cx="64.5" cy="64.5" r="49.5" stroke="url(#paint1_radial_4693_4315)" stroke-width="30"/>
<circle cx="67.5" cy="67.5" r="41.5" stroke="url(#paint2_linear_4693_4315)" stroke-width="2"/>
<path d="M228.153 71.6364C228.153 79.5672 226.65 86.3144 223.643 91.8778C220.661 97.4413 216.589 101.691 211.428 104.626C206.29 107.538 200.514 108.994 194.098 108.994C187.635 108.994 181.835 107.527 176.697 104.591C171.56 101.655 167.5 97.4058 164.517 91.8423C161.534 86.2789 160.043 79.5436 160.043 71.6364C160.043 63.7055 161.534 56.9583 164.517 51.3949C167.5 45.8314 171.56 41.5937 176.697 38.6818C181.835 35.7462 187.635 34.2784 194.098 34.2784C200.514 34.2784 206.29 35.7462 211.428 38.6818C216.589 41.5937 220.661 45.8314 223.643 51.3949C226.65 56.9583 228.153 63.7055 228.153 71.6364ZM212.564 71.6364C212.564 66.4991 211.795 62.1667 210.256 58.6392C208.741 55.1117 206.598 52.4366 203.828 50.6136C201.058 48.7907 197.815 47.8793 194.098 47.8793C190.381 47.8793 187.138 48.7907 184.368 50.6136C181.598 52.4366 179.444 55.1117 177.905 58.6392C176.39 62.1667 175.632 66.4991 175.632 71.6364C175.632 76.7737 176.39 81.1061 177.905 84.6335C179.444 88.161 181.598 90.8362 184.368 92.6591C187.138 94.482 190.381 95.3935 194.098 95.3935C197.815 95.3935 201.058 94.482 203.828 92.6591C206.598 90.8362 208.741 88.161 210.256 84.6335C211.795 81.1061 212.564 76.7737 212.564 71.6364ZM234.26 128.455V53.4545H249.174V62.6165H249.849C250.512 61.1487 251.471 59.6572 252.725 58.142C254.004 56.6032 255.661 55.3248 257.697 54.3068C259.757 53.2652 262.314 52.7443 265.368 52.7443C269.345 52.7443 273.014 53.786 276.376 55.8693C279.738 57.929 282.425 61.0421 284.437 65.2088C286.449 69.3518 287.456 74.5483 287.456 80.7983C287.456 86.8826 286.473 92.0199 284.508 96.2102C282.567 100.377 279.915 103.537 276.554 105.692C273.216 107.822 269.475 108.888 265.332 108.888C262.396 108.888 259.899 108.402 257.839 107.432C255.803 106.461 254.134 105.242 252.832 103.774C251.53 102.283 250.536 100.779 249.849 99.2642H249.387V128.455H234.26ZM249.068 80.7273C249.068 83.9706 249.518 86.7997 250.417 89.2145C251.317 91.6293 252.619 93.5114 254.324 94.8608C256.028 96.1866 258.1 96.8494 260.538 96.8494C263 96.8494 265.083 96.1747 266.788 94.8253C268.493 93.4522 269.783 91.5582 270.659 89.1435C271.558 86.705 272.008 83.8996 272.008 80.7273C272.008 77.5786 271.57 74.8087 270.694 72.4176C269.818 70.0265 268.528 68.1562 266.824 66.8068C265.119 65.4574 263.024 64.7827 260.538 64.7827C258.076 64.7827 255.993 65.4337 254.288 66.7358C252.607 68.0379 251.317 69.8845 250.417 72.2756C249.518 74.6667 249.068 77.4839 249.068 80.7273ZM317.399 109.065C311.788 109.065 306.958 107.929 302.91 105.656C298.886 103.36 295.784 100.116 293.606 95.9261C291.428 91.7121 290.339 86.7287 290.339 80.9759C290.339 75.3651 291.428 70.4408 293.606 66.2031C295.784 61.9654 298.85 58.6629 302.804 56.2955C306.781 53.928 311.445 52.7443 316.795 52.7443C320.394 52.7443 323.743 53.3243 326.845 54.4844C329.97 55.6207 332.692 57.3371 335.012 59.6335C337.356 61.9299 339.179 64.8182 340.481 68.2983C341.783 71.7547 342.434 75.803 342.434 80.4432V84.598H296.376V75.223H328.194C328.194 73.045 327.721 71.1155 326.774 69.4347C325.827 67.7538 324.513 66.4399 322.832 65.4929C321.175 64.5223 319.245 64.0369 317.044 64.0369C314.747 64.0369 312.711 64.5696 310.936 65.6349C309.184 66.6766 307.811 68.0852 306.816 69.8608C305.822 71.6127 305.313 73.5658 305.289 75.7202V84.6335C305.289 87.3324 305.787 89.6643 306.781 91.6293C307.799 93.5942 309.231 95.1094 311.078 96.1747C312.924 97.2401 315.114 97.7727 317.647 97.7727C319.328 97.7727 320.867 97.536 322.264 97.0625C323.661 96.589 324.856 95.8788 325.85 94.9318C326.845 93.9848 327.602 92.8248 328.123 91.4517L342.115 92.375C341.404 95.7367 339.949 98.6723 337.747 101.182C335.569 103.668 332.752 105.609 329.295 107.006C325.862 108.379 321.897 109.065 317.399 109.065ZM362.434 76.4659V108H347.306V53.4545H361.724V63.0781H362.363C363.571 59.9058 365.595 57.3963 368.436 55.5497C371.277 53.6795 374.721 52.7443 378.77 52.7443C382.557 52.7443 385.86 53.5729 388.677 55.2301C391.494 56.8873 393.684 59.2547 395.247 62.3324C396.809 65.3864 397.591 69.0322 397.591 73.2699V108H382.463V75.9688C382.486 72.6307 381.634 70.0265 379.906 68.1562C378.178 66.2623 375.798 65.3153 372.768 65.3153C370.732 65.3153 368.933 65.7533 367.37 66.6293C365.832 67.5052 364.624 68.7836 363.748 70.4645C362.896 72.1217 362.458 74.1222 362.434 76.4659ZM404.513 108V53.4545H418.931V63.0781H419.57C420.707 59.8821 422.601 57.3608 425.252 55.5142C427.904 53.6676 431.076 52.7443 434.769 52.7443C438.51 52.7443 441.694 53.6795 444.322 55.5497C446.95 57.3963 448.701 59.9058 449.577 63.0781H450.146C451.258 59.9531 453.271 57.4555 456.183 55.5852C459.118 53.6913 462.586 52.7443 466.587 52.7443C471.677 52.7443 475.808 54.366 478.981 57.6094C482.177 60.8291 483.775 65.3982 483.775 71.3168V108H468.683V74.2997C468.683 71.2694 467.878 68.9967 466.268 67.4815C464.658 65.9664 462.646 65.2088 460.231 65.2088C457.485 65.2088 455.342 66.0848 453.803 67.8366C452.264 69.5649 451.495 71.8494 451.495 74.6903V108H436.829V73.9801C436.829 71.3049 436.059 69.1742 434.521 67.5881C433.005 66.0019 431.005 65.2088 428.519 65.2088C426.838 65.2088 425.323 65.6349 423.974 66.4872C422.648 67.3158 421.594 68.4877 420.813 70.0028C420.032 71.4943 419.641 73.2462 419.641 75.2585V108H404.513ZM515.582 109.065C509.972 109.065 505.142 107.929 501.094 105.656C497.069 103.36 493.968 100.116 491.79 95.9261C489.612 91.7121 488.523 86.7287 488.523 80.9759C488.523 75.3651 489.612 70.4408 491.79 66.2031C493.968 61.9654 497.034 58.6629 500.987 56.2955C504.964 53.928 509.628 52.7443 514.979 52.7443C518.577 52.7443 521.927 53.3243 525.028 54.4844C528.153 55.6207 530.876 57.3371 533.196 59.6335C535.54 61.9299 537.363 64.8182 538.665 68.2983C539.967 71.7547 540.618 75.803 540.618 80.4432V84.598H494.56V75.223H526.378C526.378 73.045 525.904 71.1155 524.957 69.4347C524.01 67.7538 522.696 66.4399 521.016 65.4929C519.358 64.5223 517.429 64.0369 515.227 64.0369C512.931 64.0369 510.895 64.5696 509.119 65.6349C507.367 66.6766 505.994 68.0852 505 69.8608C504.006 71.6127 503.497 73.5658 503.473 75.7202V84.6335C503.473 87.3324 503.97 89.6643 504.964 91.6293C505.982 93.5942 507.415 95.1094 509.261 96.1747C511.108 97.2401 513.298 97.7727 515.831 97.7727C517.512 97.7727 519.051 97.536 520.447 97.0625C521.844 96.589 523.04 95.8788 524.034 94.9318C525.028 93.9848 525.786 92.8248 526.307 91.4517L540.298 92.375C539.588 95.7367 538.132 98.6723 535.93 101.182C533.752 103.668 530.935 105.609 527.479 107.006C524.046 108.379 520.08 109.065 515.582 109.065ZM590.874 69.0085L577.024 69.8608C576.787 68.6771 576.278 67.6117 575.497 66.6648C574.716 65.6941 573.686 64.9247 572.408 64.3565C571.153 63.7647 569.65 63.4688 567.898 63.4688C565.554 63.4688 563.577 63.9659 561.967 64.9602C560.357 65.9309 559.553 67.233 559.553 68.8665C559.553 70.1686 560.073 71.2694 561.115 72.169C562.157 73.0687 563.944 73.7907 566.477 74.3352L576.349 76.3239C581.652 77.4129 585.606 79.1648 588.21 81.5795C590.814 83.9943 592.116 87.1667 592.116 91.0966C592.116 94.6714 591.063 97.8082 588.956 100.507C586.873 103.206 584.008 105.313 580.362 106.828C576.74 108.32 572.562 109.065 567.827 109.065C560.606 109.065 554.853 107.562 550.568 104.555C546.307 101.525 543.809 97.4058 543.075 92.1974L557.955 91.4162C558.404 93.6179 559.493 95.2988 561.222 96.4588C562.95 97.5952 565.163 98.1634 567.862 98.1634C570.514 98.1634 572.644 97.6544 574.254 96.6364C575.888 95.5947 576.716 94.2571 576.74 92.6236C576.716 91.2505 576.136 90.1259 575 89.25C573.864 88.3504 572.112 87.6638 569.744 87.1903L560.298 85.3082C554.972 84.2429 551.006 82.3963 548.402 79.7685C545.821 77.1406 544.531 73.7907 544.531 69.7188C544.531 66.215 545.478 63.1965 547.372 60.6634C549.29 58.1302 551.977 56.1771 555.433 54.804C558.913 53.4309 562.985 52.7443 567.649 52.7443C574.538 52.7443 579.96 54.2003 583.913 57.1122C587.891 60.0241 590.211 63.9896 590.874 69.0085ZM611.77 76.4659V108H596.642V35.2727H611.344V63.0781H611.983C613.214 59.8584 615.203 57.3371 617.949 55.5142C620.695 53.6676 624.14 52.7443 628.283 52.7443C632.071 52.7443 635.373 53.5729 638.191 55.2301C641.032 56.8636 643.233 59.2192 644.796 62.2969C646.382 65.3509 647.163 69.0085 647.14 73.2699V108H632.012V75.9688C632.035 72.607 631.183 69.991 629.455 68.1207C627.75 66.2505 625.359 65.3153 622.282 65.3153C620.222 65.3153 618.399 65.7533 616.813 66.6293C615.25 67.5052 614.019 68.7836 613.12 70.4645C612.244 72.1217 611.794 74.1222 611.77 76.4659Z" fill="black"/>
<path d="M446.295 166.182C446.295 170.884 445.415 174.911 443.653 178.263C441.906 181.601 439.52 184.158 436.494 185.933C433.483 187.709 430.067 188.597 426.246 188.597C422.425 188.597 419.001 187.709 415.976 185.933C412.964 184.143 410.578 181.58 408.817 178.241C407.07 174.889 406.196 170.869 406.196 166.182C406.196 161.48 407.07 157.46 408.817 154.122C410.578 150.77 412.964 148.206 415.976 146.43C419.001 144.655 422.425 143.767 426.246 143.767C430.067 143.767 433.483 144.655 436.494 146.43C439.52 148.206 441.906 150.77 443.653 154.122C445.415 157.46 446.295 161.48 446.295 166.182ZM438.348 166.182C438.348 162.872 437.83 160.081 436.793 157.808C435.77 155.521 434.349 153.795 432.531 152.631C430.713 151.452 428.618 150.862 426.246 150.862C423.874 150.862 421.778 151.452 419.96 152.631C418.142 153.795 416.714 155.521 415.678 157.808C414.655 160.081 414.143 162.872 414.143 166.182C414.143 169.491 414.655 172.29 415.678 174.577C416.714 176.849 418.142 178.575 419.96 179.754C421.778 180.919 423.874 181.501 426.246 181.501C428.618 181.501 430.713 180.919 432.531 179.754C434.349 178.575 435.77 176.849 436.793 174.577C437.83 172.29 438.348 169.491 438.348 166.182ZM450.428 200.273V155.273H458.013V160.685H458.461C458.858 159.889 459.419 159.044 460.144 158.149C460.868 157.24 461.848 156.466 463.084 155.827C464.32 155.173 465.897 154.847 467.814 154.847C470.343 154.847 472.623 155.493 474.654 156.786C476.699 158.064 478.319 159.96 479.512 162.474C480.719 164.974 481.323 168.043 481.323 171.679C481.323 175.273 480.733 178.327 479.554 180.841C478.375 183.355 476.77 185.273 474.739 186.594C472.708 187.915 470.407 188.575 467.836 188.575C465.961 188.575 464.405 188.263 463.169 187.638C461.934 187.013 460.939 186.26 460.186 185.379C459.448 184.484 458.873 183.639 458.461 182.844H458.141V200.273H450.428ZM457.992 171.636C457.992 173.753 458.29 175.607 458.887 177.197C459.498 178.788 460.371 180.031 461.507 180.926C462.658 181.807 464.05 182.247 465.684 182.247C467.388 182.247 468.816 181.793 469.966 180.884C471.117 179.96 471.983 178.703 472.566 177.112C473.162 175.507 473.461 173.682 473.461 171.636C473.461 169.605 473.169 167.801 472.587 166.224C472.005 164.648 471.138 163.412 469.988 162.517C468.837 161.622 467.402 161.175 465.684 161.175C464.036 161.175 462.637 161.608 461.486 162.474C460.336 163.341 459.462 164.555 458.865 166.118C458.283 167.68 457.992 169.52 457.992 171.636ZM499.417 188.639C496.135 188.639 493.301 187.957 490.915 186.594C488.543 185.216 486.718 183.27 485.439 180.756C484.161 178.227 483.522 175.251 483.522 171.828C483.522 168.462 484.161 165.507 485.439 162.964C486.732 160.408 488.536 158.419 490.851 156.999C493.167 155.564 495.887 154.847 499.012 154.847C501.029 154.847 502.932 155.173 504.722 155.827C506.526 156.466 508.117 157.46 509.495 158.81C510.887 160.159 511.98 161.878 512.776 163.966C513.571 166.04 513.969 168.511 513.969 171.381V173.746H487.144V168.547H506.576C506.561 167.07 506.242 165.756 505.617 164.605C504.992 163.44 504.118 162.524 502.996 161.857C501.888 161.189 500.596 160.855 499.118 160.855C497.542 160.855 496.157 161.239 494.963 162.006C493.77 162.759 492.84 163.753 492.172 164.989C491.519 166.21 491.185 167.553 491.171 169.016V173.554C491.171 175.457 491.519 177.091 492.215 178.455C492.911 179.804 493.884 180.841 495.134 181.565C496.384 182.276 497.847 182.631 499.523 182.631C500.645 182.631 501.661 182.474 502.57 182.162C503.479 181.835 504.267 181.359 504.935 180.734C505.603 180.109 506.107 179.335 506.448 178.412L513.65 179.222C513.195 181.125 512.328 182.787 511.05 184.207C509.786 185.614 508.167 186.707 506.192 187.489C504.218 188.256 501.959 188.639 499.417 188.639ZM525.207 168.824V188H517.494V155.273H524.866V160.834H525.25C526.003 159.001 527.203 157.545 528.851 156.466C530.513 155.386 532.565 154.847 535.009 154.847C537.267 154.847 539.234 155.33 540.911 156.295C542.601 157.261 543.908 158.661 544.831 160.493C545.768 162.325 546.23 164.548 546.216 167.162V188H538.503V168.355C538.503 166.168 537.935 164.456 536.798 163.22C535.676 161.984 534.121 161.366 532.132 161.366C530.783 161.366 529.582 161.665 528.531 162.261C527.494 162.844 526.678 163.689 526.081 164.797C525.499 165.905 525.207 167.247 525.207 168.824ZM551.398 188V144.364H567.761C571.114 144.364 573.926 144.946 576.199 146.111C578.486 147.276 580.212 148.909 581.376 151.011C582.555 153.099 583.145 155.536 583.145 158.32C583.145 161.118 582.548 163.547 581.355 165.607C580.176 167.652 578.436 169.236 576.135 170.358C573.834 171.466 571.007 172.02 567.655 172.02H556V165.457H566.589C568.55 165.457 570.155 165.187 571.405 164.648C572.655 164.094 573.578 163.291 574.175 162.24C574.786 161.175 575.091 159.868 575.091 158.32C575.091 156.771 574.786 155.45 574.175 154.357C573.564 153.249 572.634 152.411 571.384 151.842C570.134 151.26 568.521 150.969 566.547 150.969H559.303V188H551.398ZM573.94 168.227L584.743 188H575.922L565.311 168.227H573.94ZM600.12 188.639C597.137 188.639 594.573 188.099 592.428 187.02C590.283 185.94 588.629 184.484 587.464 182.652C586.313 180.805 585.738 178.724 585.738 176.409C585.738 174.662 586.093 173.114 586.803 171.764C587.528 170.415 588.522 169.165 589.786 168.014C591.065 166.864 592.542 165.72 594.218 164.584L601.952 159.321C603.089 158.582 603.948 157.801 604.531 156.977C605.127 156.153 605.425 155.187 605.425 154.08C605.425 153.142 605.028 152.254 604.232 151.416C603.451 150.578 602.371 150.159 600.994 150.159C600.07 150.159 599.254 150.379 598.543 150.82C597.847 151.246 597.3 151.807 596.903 152.503C596.519 153.199 596.327 153.938 596.327 154.719C596.327 155.67 596.59 156.636 597.116 157.616C597.656 158.597 598.352 159.612 599.204 160.663C600.07 161.714 600.994 162.83 601.974 164.009L622.45 188H614.097L597.094 168.526C595.83 167.048 594.609 165.592 593.43 164.158C592.265 162.723 591.306 161.232 590.553 159.683C589.815 158.121 589.445 156.43 589.445 154.612C589.445 152.553 589.921 150.713 590.873 149.094C591.825 147.46 593.153 146.175 594.857 145.237C596.576 144.3 598.586 143.831 600.887 143.831C603.188 143.831 605.163 144.286 606.81 145.195C608.458 146.104 609.729 147.311 610.624 148.817C611.519 150.322 611.967 151.963 611.967 153.739C611.967 155.798 611.455 157.645 610.433 159.278C609.41 160.898 607.989 162.368 606.171 163.689L597.35 170.145C595.901 171.196 594.864 172.261 594.239 173.341C593.614 174.406 593.302 175.315 593.302 176.068C593.302 177.219 593.593 178.263 594.175 179.2C594.758 180.138 595.575 180.891 596.626 181.459C597.691 182.013 598.934 182.29 600.354 182.29C601.917 182.29 603.458 181.942 604.978 181.246C606.498 180.536 607.883 179.527 609.133 178.22C610.383 176.913 611.377 175.351 612.116 173.533C612.854 171.7 613.224 169.669 613.224 167.439H619.85C619.85 170.195 619.545 172.595 618.934 174.641C618.323 176.672 617.535 178.391 616.569 179.797C615.603 181.189 614.58 182.304 613.501 183.142C613.16 183.384 612.833 183.625 612.521 183.866C612.208 184.108 611.881 184.349 611.54 184.591C610.006 185.983 608.21 187.006 606.15 187.659C604.104 188.312 602.094 188.639 600.12 188.639ZM638.993 188H624.206V144.364H639.292C643.624 144.364 647.346 145.237 650.456 146.984C653.581 148.717 655.982 151.21 657.658 154.463C659.334 157.716 660.172 161.608 660.172 166.139C660.172 170.685 659.327 174.591 657.637 177.858C655.961 181.125 653.539 183.632 650.371 185.379C647.218 187.126 643.425 188 638.993 188ZM632.111 181.161H638.61C641.65 181.161 644.185 180.607 646.216 179.499C648.248 178.376 649.775 176.707 650.797 174.491C651.82 172.261 652.331 169.477 652.331 166.139C652.331 162.801 651.82 160.031 650.797 157.83C649.775 155.614 648.262 153.959 646.259 152.865C644.27 151.757 641.799 151.203 638.844 151.203H632.111V181.161Z" fill="black"/>
<defs>
<radialGradient id="paint0_radial_4693_4315" cx="0" cy="0" r="1" gradientUnits="userSpaceOnUse" gradientTransform="translate(64.5 68.9483) rotate(-3.7314) scale(102.528)">
<stop/>
<stop offset="1" stop-color="#DB00FF" stop-opacity="0"/>
</radialGradient>
<radialGradient id="paint1_radial_4693_4315" cx="0" cy="0" r="1" gradientUnits="userSpaceOnUse" gradientTransform="translate(64.5 68.9483) rotate(-3.7314) scale(102.528)">
<stop/>
<stop offset="1" stop-color="#DB00FF" stop-opacity="0"/>
</radialGradient>
<linearGradient id="paint2_linear_4693_4315" x1="67.5" y1="25" x2="46.25" y2="121.442" gradientUnits="userSpaceOnUse">
<stop/>
<stop offset="1" stop-color="#B300C3" stop-opacity="0"/>
</linearGradient>
</defs>
</svg>
