<svg width="332" height="45" viewBox="0 0 332 45" fill="none" xmlns="http://www.w3.org/2000/svg">
<rect width="332" height="45" rx="5" fill="#12AD50"/>
<path d="M31.2734 29.7054L24.736 23.168C24.3432 22.7753 24.3432 22.1385 24.736 21.7457L26.1583 20.3233C26.551 19.9305 27.1879 19.9305 27.5806 20.3233L31.9845 24.7272L41.4172 15.2946C41.8099 14.9018 42.4468 14.9018 42.8395 15.2946L44.2618 16.7169C44.6546 17.1097 44.6546 17.7465 44.2618 18.1393L32.6957 29.7054C32.3029 30.0982 31.6661 30.0982 31.2734 29.7054Z" fill="white"/>
<path d="M56.0621 28V16.3636H60.7212C61.5773 16.3636 62.2913 16.4905 62.8633 16.7443C63.4353 16.9981 63.8652 17.3504 64.1531 17.8011C64.4409 18.2481 64.5849 18.7633 64.5849 19.3466C64.5849 19.8011 64.494 20.2008 64.3121 20.5455C64.1303 20.8864 63.8803 21.1667 63.5621 21.3864C63.2478 21.6023 62.8879 21.7557 62.4826 21.8466V21.9602C62.9258 21.9792 63.3406 22.1042 63.7269 22.3352C64.1171 22.5663 64.4334 22.8902 64.6758 23.3068C64.9182 23.7197 65.0394 24.2121 65.0394 24.7841C65.0394 25.4015 64.886 25.9527 64.5792 26.4375C64.2762 26.9186 63.8273 27.2992 63.2326 27.5795C62.6379 27.8598 61.9049 28 61.0337 28H56.0621ZM58.5224 25.9886H60.5281C61.2137 25.9886 61.7137 25.858 62.0281 25.5966C62.3424 25.3314 62.4996 24.9792 62.4996 24.5398C62.4996 24.2178 62.422 23.9337 62.2667 23.6875C62.1114 23.4413 61.8898 23.2481 61.6019 23.108C61.3178 22.9678 60.9788 22.8977 60.5849 22.8977H58.5224V25.9886ZM58.5224 21.233H60.3462C60.6834 21.233 60.9826 21.1742 61.244 21.0568C61.5091 20.9356 61.7174 20.7652 61.869 20.5455C62.0243 20.3258 62.1019 20.0625 62.1019 19.7557C62.1019 19.3352 61.9523 18.9962 61.6531 18.7386C61.3576 18.4811 60.9371 18.3523 60.3917 18.3523H58.5224V21.233ZM70.5721 28.1705C69.6744 28.1705 68.9016 27.9886 68.2539 27.625C67.61 27.2576 67.1138 26.7386 66.7653 26.0682C66.4168 25.3939 66.2425 24.5966 66.2425 23.6761C66.2425 22.7784 66.4168 21.9905 66.7653 21.3125C67.1138 20.6345 67.6043 20.1061 68.2369 19.7273C68.8732 19.3485 69.6194 19.1591 70.4755 19.1591C71.0513 19.1591 71.5872 19.2519 72.0835 19.4375C72.5835 19.6193 73.0191 19.8939 73.3903 20.2614C73.7653 20.6288 74.0569 21.0909 74.2653 21.6477C74.4736 22.2008 74.5778 22.8485 74.5778 23.5909V24.2557H67.2085V22.7557H72.2994C72.2994 22.4072 72.2236 22.0985 72.0721 21.8295C71.9206 21.5606 71.7103 21.3504 71.4414 21.1989C71.1763 21.0436 70.8675 20.9659 70.5153 20.9659C70.1478 20.9659 69.8221 21.0511 69.538 21.2216C69.2577 21.3883 69.038 21.6136 68.8789 21.8977C68.7198 22.178 68.6384 22.4905 68.6346 22.8352V24.2614C68.6346 24.6932 68.7141 25.0663 68.8732 25.3807C69.0361 25.6951 69.2653 25.9375 69.5607 26.108C69.8562 26.2784 70.2066 26.3636 70.6119 26.3636C70.8808 26.3636 71.127 26.3258 71.3505 26.25C71.574 26.1742 71.7653 26.0606 71.9244 25.9091C72.0835 25.7576 72.2047 25.572 72.288 25.3523L74.5266 25.5C74.413 26.0379 74.18 26.5076 73.8278 26.9091C73.4793 27.3068 73.0285 27.6174 72.4755 27.8409C71.9263 28.0606 71.2918 28.1705 70.5721 28.1705ZM80.1005 28.1705C79.2066 28.1705 78.4376 27.9811 77.7937 27.6023C77.1535 27.2197 76.6611 26.6894 76.3164 26.0114C75.9755 25.3333 75.805 24.553 75.805 23.6705C75.805 22.7765 75.9774 21.9924 76.3221 21.3182C76.6706 20.6402 77.1649 20.1117 77.805 19.733C78.4452 19.3504 79.2066 19.1591 80.0891 19.1591C80.8505 19.1591 81.5172 19.2973 82.0891 19.5739C82.6611 19.8504 83.1138 20.2386 83.4471 20.7386C83.7804 21.2386 83.9641 21.8258 83.9982 22.5H81.7141C81.6497 22.0644 81.4793 21.714 81.2028 21.4489C80.93 21.1799 80.5721 21.0455 80.1289 21.0455C79.7539 21.0455 79.4263 21.1477 79.146 21.3523C78.8694 21.553 78.6535 21.8466 78.4982 22.233C78.3429 22.6193 78.2653 23.0871 78.2653 23.6364C78.2653 24.1932 78.341 24.6667 78.4925 25.0568C78.6478 25.447 78.8656 25.7443 79.146 25.9489C79.4263 26.1534 79.7539 26.2557 80.1289 26.2557C80.4054 26.2557 80.6535 26.1989 80.8732 26.0852C81.0967 25.9716 81.2804 25.8068 81.4244 25.5909C81.5721 25.3712 81.6687 25.108 81.7141 24.8011H83.9982C83.9603 25.4678 83.7785 26.0549 83.4528 26.5625C83.1308 27.0663 82.6857 27.4602 82.1175 27.7443C81.5494 28.0284 80.877 28.1705 80.1005 28.1705ZM89.4911 28.1705C88.6085 28.1705 87.8453 27.983 87.2013 27.608C86.5612 27.2292 86.0669 26.7027 85.7184 26.0284C85.3699 25.3504 85.1957 24.5644 85.1957 23.6705C85.1957 22.7689 85.3699 21.9811 85.7184 21.3068C86.0669 20.6288 86.5612 20.1023 87.2013 19.7273C87.8453 19.3485 88.6085 19.1591 89.4911 19.1591C90.3737 19.1591 91.1351 19.3485 91.7752 19.7273C92.4192 20.1023 92.9154 20.6288 93.2638 21.3068C93.6123 21.9811 93.7866 22.7689 93.7866 23.6705C93.7866 24.5644 93.6123 25.3504 93.2638 26.0284C92.9154 26.7027 92.4192 27.2292 91.7752 27.608C91.1351 27.983 90.3737 28.1705 89.4911 28.1705ZM89.5025 26.2955C89.904 26.2955 90.2392 26.1818 90.5082 25.9545C90.7771 25.7235 90.9798 25.4091 91.1161 25.0114C91.2563 24.6136 91.3263 24.161 91.3263 23.6534C91.3263 23.1458 91.2563 22.6932 91.1161 22.2955C90.9798 21.8977 90.7771 21.5833 90.5082 21.3523C90.2392 21.1212 89.904 21.0057 89.5025 21.0057C89.0972 21.0057 88.7563 21.1212 88.4798 21.3523C88.207 21.5833 88.0006 21.8977 87.8604 22.2955C87.7241 22.6932 87.6559 23.1458 87.6559 23.6534C87.6559 24.161 87.7241 24.6136 87.8604 25.0114C88.0006 25.4091 88.207 25.7235 88.4798 25.9545C88.7563 26.1818 89.0972 26.2955 89.5025 26.2955ZM95.3604 28V19.2727H97.6673V20.8125H97.7695C97.9513 20.3011 98.2544 19.8977 98.6786 19.6023C99.1029 19.3068 99.6104 19.1591 100.201 19.1591C100.8 19.1591 101.309 19.3087 101.73 19.608C102.15 19.9034 102.431 20.3049 102.571 20.8125H102.662C102.84 20.3125 103.162 19.9129 103.627 19.6136C104.097 19.3106 104.652 19.1591 105.292 19.1591C106.107 19.1591 106.768 19.4186 107.275 19.9375C107.787 20.4527 108.042 21.1837 108.042 22.1307V28H105.627V22.608C105.627 22.1231 105.499 21.7595 105.241 21.517C104.984 21.2746 104.662 21.1534 104.275 21.1534C103.836 21.1534 103.493 21.2936 103.247 21.5739C103.001 21.8504 102.877 22.2159 102.877 22.6705V28H100.531V22.5568C100.531 22.1288 100.408 21.7879 100.162 21.5341C99.9192 21.2803 99.5991 21.1534 99.2013 21.1534C98.9324 21.1534 98.69 21.2216 98.4741 21.358C98.262 21.4905 98.0934 21.678 97.9684 21.9205C97.8434 22.1591 97.7809 22.4394 97.7809 22.7614V28H95.3604ZM109.954 28V19.2727H112.375V28H109.954ZM111.17 18.1477C110.81 18.1477 110.502 18.0284 110.244 17.7898C109.99 17.5473 109.863 17.2576 109.863 16.9205C109.863 16.5871 109.99 16.3011 110.244 16.0625C110.502 15.8201 110.81 15.6989 111.17 15.6989C111.53 15.6989 111.837 15.8201 112.091 16.0625C112.348 16.3011 112.477 16.5871 112.477 16.9205C112.477 17.2576 112.348 17.5473 112.091 17.7898C111.837 18.0284 111.53 18.1477 111.17 18.1477ZM116.734 22.9545V28H114.314V19.2727H116.62V20.8125H116.723C116.916 20.3049 117.24 19.9034 117.694 19.608C118.149 19.3087 118.7 19.1591 119.348 19.1591C119.954 19.1591 120.482 19.2917 120.933 19.5568C121.384 19.822 121.734 20.2008 121.984 20.6932C122.234 21.1818 122.359 21.7652 122.359 22.4432V28H119.939V22.875C119.942 22.3409 119.806 21.9242 119.529 21.625C119.253 21.322 118.872 21.1705 118.387 21.1705C118.062 21.1705 117.774 21.2405 117.524 21.3807C117.278 21.5208 117.084 21.7254 116.944 21.9943C116.808 22.2595 116.738 22.5795 116.734 22.9545ZM128.199 31.4545C127.414 31.4545 126.742 31.3466 126.181 31.1307C125.625 30.9186 125.181 30.6288 124.852 30.2614C124.522 29.8939 124.308 29.4811 124.21 29.0227L126.449 28.7216C126.517 28.8958 126.625 29.0587 126.772 29.2102C126.92 29.3617 127.115 29.483 127.358 29.5739C127.604 29.6686 127.903 29.7159 128.255 29.7159C128.782 29.7159 129.216 29.5871 129.556 29.3295C129.901 29.0758 130.074 28.6496 130.074 28.0511V26.4545H129.971C129.865 26.697 129.706 26.9261 129.494 27.142C129.282 27.358 129.009 27.5341 128.676 27.6705C128.342 27.8068 127.945 27.875 127.483 27.875C126.827 27.875 126.231 27.7235 125.693 27.4205C125.159 27.1136 124.733 26.6458 124.414 26.017C124.1 25.3845 123.943 24.5852 123.943 23.6193C123.943 22.6307 124.104 21.8049 124.426 21.142C124.748 20.4792 125.176 19.983 125.71 19.6534C126.248 19.3239 126.837 19.1591 127.477 19.1591C127.966 19.1591 128.375 19.2424 128.704 19.4091C129.034 19.572 129.299 19.7765 129.5 20.0227C129.704 20.2652 129.861 20.5038 129.971 20.7386H130.062V19.2727H132.466V28.0852C132.466 28.8277 132.284 29.4489 131.92 29.9489C131.556 30.4489 131.053 30.8239 130.409 31.0739C129.769 31.3277 129.032 31.4545 128.199 31.4545ZM128.25 26.0568C128.64 26.0568 128.969 25.9602 129.238 25.767C129.511 25.5701 129.719 25.2898 129.863 24.9261C130.011 24.5587 130.085 24.1193 130.085 23.608C130.085 23.0966 130.013 22.6534 129.869 22.2784C129.725 21.8996 129.517 21.6061 129.244 21.3977C128.971 21.1894 128.64 21.0852 128.25 21.0852C127.852 21.0852 127.517 21.1932 127.244 21.4091C126.971 21.6212 126.765 21.9167 126.625 22.2955C126.484 22.6742 126.414 23.1117 126.414 23.608C126.414 24.1117 126.484 24.5473 126.625 24.9148C126.769 25.2784 126.975 25.5606 127.244 25.7614C127.517 25.9583 127.852 26.0568 128.25 26.0568ZM140.583 28.1648C140.027 28.1648 139.53 28.0682 139.095 27.875C138.659 27.678 138.315 27.3883 138.061 27.0057C137.811 26.6193 137.686 26.1383 137.686 25.5625C137.686 25.0777 137.775 24.6705 137.953 24.3409C138.131 24.0114 138.373 23.7462 138.68 23.5455C138.987 23.3447 139.335 23.1932 139.725 23.0909C140.119 22.9886 140.532 22.9167 140.964 22.875C141.472 22.822 141.881 22.7727 142.191 22.7273C142.502 22.678 142.727 22.6061 142.868 22.5114C143.008 22.4167 143.078 22.2765 143.078 22.0909V22.0568C143.078 21.697 142.964 21.4186 142.737 21.2216C142.513 21.0246 142.195 20.9261 141.782 20.9261C141.347 20.9261 141 21.0227 140.743 21.2159C140.485 21.4053 140.315 21.6439 140.231 21.9318L137.993 21.75C138.106 21.2197 138.33 20.7614 138.663 20.375C138.996 19.9848 139.426 19.6856 139.953 19.4773C140.483 19.2652 141.097 19.1591 141.794 19.1591C142.279 19.1591 142.743 19.2159 143.186 19.3295C143.633 19.4432 144.029 19.6193 144.373 19.858C144.722 20.0966 144.996 20.4034 145.197 20.7784C145.398 21.1496 145.498 21.5947 145.498 22.1136V28H143.203V26.7898H143.135C142.994 27.0625 142.807 27.303 142.572 27.5114C142.337 27.7159 142.055 27.8769 141.725 27.9943C141.396 28.108 141.015 28.1648 140.583 28.1648ZM141.277 26.4943C141.633 26.4943 141.947 26.4242 142.22 26.2841C142.493 26.1402 142.707 25.947 142.862 25.7045C143.017 25.4621 143.095 25.1875 143.095 24.8807V23.9545C143.019 24.0038 142.915 24.0492 142.782 24.0909C142.654 24.1288 142.508 24.1648 142.345 24.1989C142.182 24.2292 142.019 24.2576 141.856 24.2841C141.693 24.3068 141.546 24.3277 141.413 24.3466C141.129 24.3883 140.881 24.4545 140.669 24.5455C140.457 24.6364 140.292 24.7595 140.174 24.9148C140.057 25.0663 139.998 25.2557 139.998 25.483C139.998 25.8125 140.118 26.0644 140.356 26.2386C140.599 26.4091 140.905 26.4943 141.277 26.4943ZM153.227 16.3636L156.039 25.2045H156.147L158.966 16.3636H161.693L157.681 28H154.511L150.494 16.3636H153.227ZM166.041 28.1705C165.143 28.1705 164.37 27.9886 163.723 27.625C163.079 27.2576 162.583 26.7386 162.234 26.0682C161.886 25.3939 161.711 24.5966 161.711 23.6761C161.711 22.7784 161.886 21.9905 162.234 21.3125C162.583 20.6345 163.073 20.1061 163.706 19.7273C164.342 19.3485 165.088 19.1591 165.944 19.1591C166.52 19.1591 167.056 19.2519 167.552 19.4375C168.052 19.6193 168.488 19.8939 168.859 20.2614C169.234 20.6288 169.526 21.0909 169.734 21.6477C169.942 22.2008 170.047 22.8485 170.047 23.5909V24.2557H162.677V22.7557H167.768C167.768 22.4072 167.692 22.0985 167.541 21.8295C167.389 21.5606 167.179 21.3504 166.91 21.1989C166.645 21.0436 166.336 20.9659 165.984 20.9659C165.617 20.9659 165.291 21.0511 165.007 21.2216C164.726 21.3883 164.507 21.6136 164.348 21.8977C164.189 22.178 164.107 22.4905 164.103 22.8352V24.2614C164.103 24.6932 164.183 25.0663 164.342 25.3807C164.505 25.6951 164.734 25.9375 165.029 26.108C165.325 26.2784 165.675 26.3636 166.081 26.3636C166.35 26.3636 166.596 26.3258 166.819 26.25C167.043 26.1742 167.234 26.0606 167.393 25.9091C167.552 25.7576 167.673 25.572 167.757 25.3523L169.995 25.5C169.882 26.0379 169.649 26.5076 169.297 26.9091C168.948 27.3068 168.497 27.6174 167.944 27.8409C167.395 28.0606 166.761 28.1705 166.041 28.1705ZM171.626 28V19.2727H173.973V20.7955H174.064C174.223 20.2538 174.49 19.8447 174.865 19.5682C175.24 19.2879 175.672 19.1477 176.16 19.1477C176.281 19.1477 176.412 19.1553 176.552 19.1705C176.692 19.1856 176.815 19.2064 176.922 19.233V21.3807C176.808 21.3466 176.651 21.3163 176.45 21.2898C176.249 21.2633 176.065 21.25 175.899 21.25C175.543 21.25 175.225 21.3277 174.944 21.483C174.668 21.6345 174.448 21.8466 174.285 22.1193C174.126 22.392 174.047 22.7064 174.047 23.0625V28H171.626ZM178.173 28V19.2727H180.593V28H178.173ZM179.389 18.1477C179.029 18.1477 178.72 18.0284 178.463 17.7898C178.209 17.5473 178.082 17.2576 178.082 16.9205C178.082 16.5871 178.209 16.3011 178.463 16.0625C178.72 15.8201 179.029 15.6989 179.389 15.6989C179.749 15.6989 180.056 15.8201 180.309 16.0625C180.567 16.3011 180.696 16.5871 180.696 16.9205C180.696 17.2576 180.567 17.5473 180.309 17.7898C180.056 18.0284 179.749 18.1477 179.389 18.1477ZM187.225 19.2727V21.0909H181.839V19.2727H187.225ZM183.072 28V18.642C183.072 18.0095 183.195 17.4848 183.441 17.0682C183.691 16.6515 184.032 16.339 184.464 16.1307C184.896 15.9223 185.386 15.8182 185.936 15.8182C186.307 15.8182 186.646 15.8466 186.953 15.9034C187.263 15.9602 187.494 16.0114 187.646 16.0568L187.214 17.875C187.119 17.8447 187.002 17.8163 186.862 17.7898C186.725 17.7633 186.585 17.75 186.441 17.75C186.085 17.75 185.837 17.8333 185.697 18C185.557 18.1629 185.487 18.392 185.487 18.6875V28H183.072ZM188.704 28V19.2727H191.125V28H188.704ZM189.92 18.1477C189.56 18.1477 189.252 18.0284 188.994 17.7898C188.74 17.5473 188.613 17.2576 188.613 16.9205C188.613 16.5871 188.74 16.3011 188.994 16.0625C189.252 15.8201 189.56 15.6989 189.92 15.6989C190.28 15.6989 190.587 15.8201 190.841 16.0625C191.098 16.3011 191.227 16.5871 191.227 16.9205C191.227 17.2576 191.098 17.5473 190.841 17.7898C190.587 18.0284 190.28 18.1477 189.92 18.1477ZM197.041 28.1705C196.143 28.1705 195.37 27.9886 194.723 27.625C194.079 27.2576 193.583 26.7386 193.234 26.0682C192.886 25.3939 192.711 24.5966 192.711 23.6761C192.711 22.7784 192.886 21.9905 193.234 21.3125C193.583 20.6345 194.073 20.1061 194.706 19.7273C195.342 19.3485 196.088 19.1591 196.944 19.1591C197.52 19.1591 198.056 19.2519 198.552 19.4375C199.052 19.6193 199.488 19.8939 199.859 20.2614C200.234 20.6288 200.526 21.0909 200.734 21.6477C200.942 22.2008 201.047 22.8485 201.047 23.5909V24.2557H193.677V22.7557H198.768C198.768 22.4072 198.692 22.0985 198.541 21.8295C198.389 21.5606 198.179 21.3504 197.91 21.1989C197.645 21.0436 197.336 20.9659 196.984 20.9659C196.617 20.9659 196.291 21.0511 196.007 21.2216C195.726 21.3883 195.507 21.6136 195.348 21.8977C195.189 22.178 195.107 22.4905 195.103 22.8352V24.2614C195.103 24.6932 195.183 25.0663 195.342 25.3807C195.505 25.6951 195.734 25.9375 196.029 26.108C196.325 26.2784 196.675 26.3636 197.081 26.3636C197.35 26.3636 197.596 26.3258 197.819 26.25C198.043 26.1742 198.234 26.0606 198.393 25.9091C198.552 25.7576 198.673 25.572 198.757 25.3523L200.995 25.5C200.882 26.0379 200.649 26.5076 200.297 26.9091C199.948 27.3068 199.497 27.6174 198.944 27.8409C198.395 28.0606 197.761 28.1705 197.041 28.1705ZM205.842 28.142C205.179 28.142 204.579 27.9716 204.041 27.6307C203.507 27.286 203.083 26.7803 202.768 26.1136C202.458 25.4432 202.302 24.6212 202.302 23.6477C202.302 22.6477 202.463 21.8163 202.785 21.1534C203.107 20.4867 203.535 19.9886 204.069 19.6591C204.607 19.3258 205.196 19.1591 205.836 19.1591C206.325 19.1591 206.732 19.2424 207.058 19.4091C207.387 19.572 207.653 19.7765 207.853 20.0227C208.058 20.2652 208.213 20.5038 208.319 20.7386H208.393V16.3636H210.808V28H208.422V26.6023H208.319C208.206 26.8447 208.045 27.0852 207.836 27.3239C207.632 27.5587 207.365 27.7538 207.035 27.9091C206.709 28.0644 206.312 28.142 205.842 28.142ZM206.609 26.2159C206.999 26.2159 207.329 26.1098 207.598 25.8977C207.87 25.6818 208.079 25.3807 208.223 24.9943C208.37 24.608 208.444 24.1553 208.444 23.6364C208.444 23.1174 208.372 22.6667 208.228 22.2841C208.084 21.9015 207.876 21.6061 207.603 21.3977C207.331 21.1894 206.999 21.0852 206.609 21.0852C206.211 21.0852 205.876 21.1932 205.603 21.4091C205.331 21.625 205.124 21.9242 204.984 22.3068C204.844 22.6894 204.774 23.1326 204.774 23.6364C204.774 24.1439 204.844 24.5928 204.984 24.983C205.128 25.3693 205.334 25.6723 205.603 25.892C205.876 26.108 206.211 26.2159 206.609 26.2159ZM226.814 20.4375H224.325C224.279 20.1155 224.187 19.8295 224.047 19.5795C223.906 19.3258 223.726 19.1098 223.507 18.9318C223.287 18.7538 223.033 18.6174 222.745 18.5227C222.461 18.428 222.153 18.3807 221.819 18.3807C221.217 18.3807 220.692 18.5303 220.245 18.8295C219.798 19.125 219.452 19.5568 219.206 20.125C218.959 20.6894 218.836 21.375 218.836 22.1818C218.836 23.0114 218.959 23.7083 219.206 24.2727C219.456 24.8371 219.804 25.2633 220.251 25.5511C220.698 25.839 221.215 25.983 221.802 25.983C222.132 25.983 222.437 25.9394 222.717 25.8523C223.001 25.7652 223.253 25.6383 223.473 25.4716C223.692 25.3011 223.874 25.0947 224.018 24.8523C224.166 24.6098 224.268 24.3333 224.325 24.0227L226.814 24.0341C226.749 24.5682 226.588 25.0833 226.331 25.5795C226.077 26.072 225.734 26.5133 225.302 26.9034C224.874 27.2898 224.363 27.5966 223.768 27.8239C223.177 28.0473 222.509 28.1591 221.762 28.1591C220.725 28.1591 219.797 27.9242 218.978 27.4545C218.164 26.9848 217.52 26.3049 217.047 25.4148C216.577 24.5246 216.342 23.447 216.342 22.1818C216.342 20.9129 216.581 19.8333 217.058 18.9432C217.535 18.053 218.183 17.375 219.001 16.9091C219.819 16.4394 220.74 16.2045 221.762 16.2045C222.437 16.2045 223.062 16.2992 223.637 16.4886C224.217 16.678 224.73 16.9545 225.177 17.3182C225.624 17.678 225.988 18.1193 226.268 18.642C226.552 19.1648 226.734 19.7633 226.814 20.4375ZM232.475 28.1705C231.593 28.1705 230.83 27.983 230.186 27.608C229.546 27.2292 229.051 26.7027 228.703 26.0284C228.354 25.3504 228.18 24.5644 228.18 23.6705C228.18 22.7689 228.354 21.9811 228.703 21.3068C229.051 20.6288 229.546 20.1023 230.186 19.7273C230.83 19.3485 231.593 19.1591 232.475 19.1591C233.358 19.1591 234.119 19.3485 234.76 19.7273C235.404 20.1023 235.9 20.6288 236.248 21.3068C236.597 21.9811 236.771 22.7689 236.771 23.6705C236.771 24.5644 236.597 25.3504 236.248 26.0284C235.9 26.7027 235.404 27.2292 234.76 27.608C234.119 27.983 233.358 28.1705 232.475 28.1705ZM232.487 26.2955C232.888 26.2955 233.224 26.1818 233.493 25.9545C233.761 25.7235 233.964 25.4091 234.1 25.0114C234.241 24.6136 234.311 24.161 234.311 23.6534C234.311 23.1458 234.241 22.6932 234.1 22.2955C233.964 21.8977 233.761 21.5833 233.493 21.3523C233.224 21.1212 232.888 21.0057 232.487 21.0057C232.082 21.0057 231.741 21.1212 231.464 21.3523C231.191 21.5833 230.985 21.8977 230.845 22.2955C230.708 22.6932 230.64 23.1458 230.64 23.6534C230.64 24.161 230.708 24.6136 230.845 25.0114C230.985 25.4091 231.191 25.7235 231.464 25.9545C231.741 26.1818 232.082 26.2955 232.487 26.2955ZM240.765 22.9545V28H238.345V19.2727H240.652V20.8125H240.754C240.947 20.3049 241.271 19.9034 241.725 19.608C242.18 19.3087 242.731 19.1591 243.379 19.1591C243.985 19.1591 244.513 19.2917 244.964 19.5568C245.415 19.822 245.765 20.2008 246.015 20.6932C246.265 21.1818 246.39 21.7652 246.39 22.4432V28H243.97V22.875C243.974 22.3409 243.837 21.9242 243.561 21.625C243.284 21.322 242.904 21.1705 242.419 21.1705C242.093 21.1705 241.805 21.2405 241.555 21.3807C241.309 21.5208 241.116 21.7254 240.975 21.9943C240.839 22.2595 240.769 22.5795 240.765 22.9545ZM252.94 19.2727V21.0909H247.684V19.2727H252.94ZM248.877 17.1818H251.298V25.3182C251.298 25.5417 251.332 25.7159 251.4 25.8409C251.468 25.9621 251.563 26.0473 251.684 26.0966C251.809 26.1458 251.953 26.1705 252.116 26.1705C252.23 26.1705 252.343 26.161 252.457 26.142C252.571 26.1193 252.658 26.1023 252.718 26.0909L253.099 27.892C252.978 27.9299 252.807 27.9735 252.588 28.0227C252.368 28.0758 252.101 28.108 251.787 28.1193C251.203 28.142 250.692 28.0644 250.252 27.8864C249.817 27.7083 249.478 27.4318 249.235 27.0568C248.993 26.6818 248.874 26.2083 248.877 25.6364V17.1818ZM254.517 28V19.2727H256.863V20.7955H256.954C257.113 20.2538 257.38 19.8447 257.755 19.5682C258.13 19.2879 258.562 19.1477 259.051 19.1477C259.172 19.1477 259.303 19.1553 259.443 19.1705C259.583 19.1856 259.706 19.2064 259.812 19.233V21.3807C259.699 21.3466 259.541 21.3163 259.341 21.2898C259.14 21.2633 258.956 21.25 258.789 21.25C258.433 21.25 258.115 21.3277 257.835 21.483C257.558 21.6345 257.339 21.8466 257.176 22.1193C257.017 22.392 256.937 22.7064 256.937 23.0625V28H254.517ZM261.064 28V19.2727H263.484V28H261.064ZM262.279 18.1477C261.92 18.1477 261.611 18.0284 261.353 17.7898C261.1 17.5473 260.973 17.2576 260.973 16.9205C260.973 16.5871 261.1 16.3011 261.353 16.0625C261.611 15.8201 261.92 15.6989 262.279 15.6989C262.639 15.6989 262.946 15.8201 263.2 16.0625C263.458 16.3011 263.586 16.5871 263.586 16.9205C263.586 17.2576 263.458 17.5473 263.2 17.7898C262.946 18.0284 262.639 18.1477 262.279 18.1477ZM265.468 28V16.3636H267.889V20.7386H267.963C268.069 20.5038 268.222 20.2652 268.423 20.0227C268.627 19.7765 268.893 19.572 269.218 19.4091C269.548 19.2424 269.957 19.1591 270.446 19.1591C271.082 19.1591 271.669 19.3258 272.207 19.6591C272.745 19.9886 273.175 20.4867 273.497 21.1534C273.819 21.8163 273.98 22.6477 273.98 23.6477C273.98 24.6212 273.823 25.4432 273.508 26.1136C273.198 26.7803 272.773 27.286 272.235 27.6307C271.701 27.9716 271.103 28.142 270.44 28.142C269.97 28.142 269.571 28.0644 269.241 27.9091C268.915 27.7538 268.648 27.5587 268.44 27.3239C268.232 27.0852 268.073 26.8447 267.963 26.6023H267.855V28H265.468ZM267.838 23.6364C267.838 24.1553 267.91 24.608 268.054 24.9943C268.198 25.3807 268.406 25.6818 268.679 25.8977C268.951 26.1098 269.283 26.2159 269.673 26.2159C270.067 26.2159 270.4 26.108 270.673 25.892C270.946 25.6723 271.152 25.3693 271.292 24.983C271.436 24.5928 271.508 24.1439 271.508 23.6364C271.508 23.1326 271.438 22.6894 271.298 22.3068C271.158 21.9242 270.951 21.625 270.679 21.4091C270.406 21.1932 270.071 21.0852 269.673 21.0852C269.279 21.0852 268.946 21.1894 268.673 21.3977C268.404 21.6061 268.198 21.9015 268.054 22.2841C267.91 22.6667 267.838 23.1174 267.838 23.6364ZM281.191 24.2841V19.2727H283.612V28H281.288V26.4148H281.197C281 26.9261 280.672 27.3371 280.214 27.6477C279.76 27.9583 279.205 28.1136 278.549 28.1136C277.966 28.1136 277.453 27.9811 277.01 27.7159C276.566 27.4508 276.22 27.0739 275.97 26.5852C275.724 26.0966 275.599 25.5114 275.595 24.8295V19.2727H278.015V24.3977C278.019 24.9129 278.157 25.3201 278.43 25.6193C278.703 25.9186 279.068 26.0682 279.527 26.0682C279.818 26.0682 280.091 26.0019 280.345 25.8693C280.599 25.733 280.803 25.5322 280.958 25.267C281.118 25.0019 281.195 24.6742 281.191 24.2841ZM290.19 19.2727V21.0909H284.934V19.2727H290.19ZM286.127 17.1818H288.548V25.3182C288.548 25.5417 288.582 25.7159 288.65 25.8409C288.718 25.9621 288.813 26.0473 288.934 26.0966C289.059 26.1458 289.203 26.1705 289.366 26.1705C289.48 26.1705 289.593 26.161 289.707 26.142C289.821 26.1193 289.908 26.1023 289.968 26.0909L290.349 27.892C290.228 27.9299 290.057 27.9735 289.838 28.0227C289.618 28.0758 289.351 28.108 289.037 28.1193C288.453 28.142 287.942 28.0644 287.502 27.8864C287.067 27.7083 286.728 27.4318 286.485 27.0568C286.243 26.6818 286.124 26.2083 286.127 25.6364V17.1818ZM295.616 28.1705C294.734 28.1705 293.97 27.983 293.326 27.608C292.686 27.2292 292.192 26.7027 291.843 26.0284C291.495 25.3504 291.321 24.5644 291.321 23.6705C291.321 22.7689 291.495 21.9811 291.843 21.3068C292.192 20.6288 292.686 20.1023 293.326 19.7273C293.97 19.3485 294.734 19.1591 295.616 19.1591C296.499 19.1591 297.26 19.3485 297.9 19.7273C298.544 20.1023 299.04 20.6288 299.389 21.3068C299.737 21.9811 299.912 22.7689 299.912 23.6705C299.912 24.5644 299.737 25.3504 299.389 26.0284C299.04 26.7027 298.544 27.2292 297.9 27.608C297.26 27.983 296.499 28.1705 295.616 28.1705ZM295.627 26.2955C296.029 26.2955 296.364 26.1818 296.633 25.9545C296.902 25.7235 297.105 25.4091 297.241 25.0114C297.381 24.6136 297.451 24.161 297.451 23.6534C297.451 23.1458 297.381 22.6932 297.241 22.2955C297.105 21.8977 296.902 21.5833 296.633 21.3523C296.364 21.1212 296.029 21.0057 295.627 21.0057C295.222 21.0057 294.881 21.1212 294.605 21.3523C294.332 21.5833 294.126 21.8977 293.985 22.2955C293.849 22.6932 293.781 23.1458 293.781 23.6534C293.781 24.161 293.849 24.6136 293.985 25.0114C294.126 25.4091 294.332 25.7235 294.605 25.9545C294.881 26.1818 295.222 26.2955 295.627 26.2955ZM301.485 28V19.2727H303.832V20.7955H303.923C304.082 20.2538 304.349 19.8447 304.724 19.5682C305.099 19.2879 305.531 19.1477 306.02 19.1477C306.141 19.1477 306.271 19.1553 306.412 19.1705C306.552 19.1856 306.675 19.2064 306.781 19.233V21.3807C306.667 21.3466 306.51 21.3163 306.309 21.2898C306.109 21.2633 305.925 21.25 305.758 21.25C305.402 21.25 305.084 21.3277 304.804 21.483C304.527 21.6345 304.307 21.8466 304.145 22.1193C303.985 22.392 303.906 22.7064 303.906 23.0625V28H301.485Z" fill="white"/>
</svg>
